<svg xmlns="http://www.w3.org/2000/svg" xml:space="preserve" width="1080" height="1080"><path stroke-linecap="round" d="M73.4 182.6c-12.5-12.5-12.5-32.8 0-45.3s32.8-12.5 45.3 0l160 160c12.5 12.5 12.5 32.8 0 45.3l-160 160c-12.5 12.5-32.8 12.5-45.3 0s-12.5-32.8 0-45.3L210.7 320 73.4 182.6zM288 448h256c17.7 0 32 14.3 32 32s-14.3 32-32 32H288c-17.7 0-32-14.3-32-32s14.3-32 32-32z" style="stroke:#c34043;stroke-width:1;stroke-dasharray:none;stroke-linecap:butt;stroke-dashoffset:0;stroke-linejoin:miter;stroke-miterlimit:4;fill:#c34043;fill-rule:nonzero;opacity:1" transform="matrix(1.69 0 0 1.69 -.817 -.732)"/></svg>